# File created by Blade
# Date/Time:  Tue Jan 27 19:23:26 2015
#---------------------------------------------------------
:version 1.10
:name HOM
:units
  mass 1.0
  length 1.000000
  angle deg
:documentation
     Acclaim Skeleton File
:root
   axis xyz
   order TX TY TZ RX RY RZ
   position 0.000000 0.000000 0.000000
   orientation 0 0 0
:bonedata
   begin
      id 1
      name Spine_dum
      direction 0.000000 1.000000 0.000000
      length 6.116652
      axis 0.0 0.0 0.0 xyz
   end
   begin
      id 2
      name LeftUpLeg_dum
      direction 1.000000 0.000000 0.000000
      length 4.711765
      axis 0.0 0.0 0.0 xyz
   end
   begin
      id 3
      name RightUpLeg_dum
      direction -1.000000 0.000000 0.000000
      length 4.711765
      axis 0.0 0.0 0.0 xyz
   end
   begin
      id 4
      name Spine
      direction 0.000000 1.000000 0.000000
      length 0.000000
      axis 0.0 0.0 0.0 xyz
      dof rx ry rz
   end
   begin
      id 5
      name Spine_dum1
      direction 0.000000 1.000000 0.000000
      length 15.225563
      axis 0.0 0.0 0.0 xyz
   end
   begin
      id 6
      name Spine_dum2
      direction 0.000000 1.000000 0.000000
      length 8.977654
      axis 0.0 0.0 0.0 xyz
   end
   begin
      id 7
      name Spine_dum3
      direction 0.000000 1.000000 0.000000
      length 8.977654
      axis 0.0 0.0 0.0 xyz
   end
   begin
      id 8
      name Head
      direction 0.000000 1.000000 0.000000
      length 4.527550
      axis 0.0 0.0 0.0 xyz
      dof rx ry rz
   end
   begin
      id 9
      name LeftShoulder
      direction 1.000000 0.000000 0.000000
      length 7.110130
      axis 0.0 0.0 -90.0 xyz
      dof rx ry rz
   end
   begin
      id 10
      name LeftArm
      direction 1.000000 0.000000 0.000000
      length 10.398341
      axis 0.0 0.0 -90.0 xyz
      dof rx ry rz
   end
   begin
      id 11
      name LeftForeArm
      direction 1.000000 0.000000 0.000000
      length 8.888997
      axis 0.0 0.0 -90.0 xyz
      dof ry rz rx
   end
   begin
      id 12
      name LeftHand
      direction 0.000000 0.000000 0.000000
      length 0.000000
      axis 0.0 0.0 -90.0 xyz
      dof rx ry rz
   end
   begin
      id 13
      name LeftHand_dum1
      direction 0.000000 0.000000 0.000000
      length 0.000000
      axis 0.0 0.0 -90.0 xyz
   end
   begin
      id 14
      name LeftHand_dum2
      direction 1.000000 0.000000 0.000000
      length 3.937000
      axis 0.0 0.0 -90.0 xyz
   end
   begin
      id 15
      name LeftHandThumb1
      direction 0.000000 0.000000 1.000000
      length 3.937000
      axis 0.0 0.0 -90.0 xyz
      dof rx rz ry
   end
   begin
      id 16
      name RightShoulder
      direction -1.000000 0.000000 0.000000
      length 7.110130
      axis 0.0 0.0 90.0 xyz
      dof rx ry rz
   end
   begin
      id 17
      name RightArm
      direction -1.000000 0.000000 0.000000
      length 10.398341
      axis 0.0 0.0 90.0 xyz
      dof rx ry rz
   end
   begin
      id 18
      name RightForeArm
      direction -1.000000 0.000000 0.000000
      length 8.888997
      axis 0.0 0.0 90.0 xyz
      dof ry rz rx
   end
   begin
      id 19
      name RightHand
      direction 0.000000 0.000000 0.000000
      length 0.000000
      axis 0.0 0.0 90.0 xyz
      dof rx ry rz
   end
   begin
      id 20
      name RightHand_dum1
      direction 0.000000 0.000000 0.000000
      length 0.000000
      axis 0.0 0.0 90.0 xyz
   end
   begin
      id 21
      name RightHand_dum2
      direction -1.000000 0.000000 0.000000
      length 3.937000
      axis 0.0 0.0 90.0 xyz
   end
   begin
      id 22
      name RightHandThumb1
      direction 0.000000 0.000000 1.000000
      length 3.937000
      axis 0.0 0.0 90.0 xyz
      dof rx rz ry
   end
   begin
      id 23
      name LeftUpLeg
      direction 0.000000 -1.000000 0.000000
      length 15.510451
      axis 0.0 0.0 0.0 xyz
      dof rx ry rz
   end
   begin
      id 24
      name LeftLeg
      direction 0.000000 -1.000000 0.000000
      length 14.858061
      axis 0.0 0.0 0.0 xyz
      dof rx ry rz
   end
   begin
      id 25
      name LeftFoot
      direction 0.000000 -0.258819 0.965926
      length 5.128852
      axis 15.0 0.0 0.0 xyz
      dof rx ry rz
   end
   begin
      id 26
      name LeftToeBase
      direction 0.000000 0.000000 1.000000
      length 2.952750
      axis 0.0 0.0 0.0 xyz
      dof rx ry rz
   end
   begin
      id 27
      name RightUpLeg
      direction 0.000000 -1.000000 0.000000
      length 15.510451
      axis 0.0 0.0 0.0 xyz
      dof rx ry rz
   end
   begin
      id 28
      name RightLeg
      direction 0.000000 -1.000000 0.000000
      length 14.858061
      axis 0.0 0.0 0.0 xyz
      dof rx ry rz
   end
   begin
      id 29
      name RightFoot
      direction 0.000000 -0.258819 0.965926
      length 5.128852
      axis 15.0 0.0 0.0 xyz
      dof rx ry rz
   end
   begin
      id 30
      name RightToeBase
      direction 0.000000 0.000000 1.000000
      length 2.952750
      axis 0.0 0.0 0.0 xyz
      dof rx ry rz
   end
:hierarchy
   begin
      root Spine_dum LeftUpLeg_dum RightUpLeg_dum
      Spine_dum Spine
      LeftUpLeg_dum LeftUpLeg
      RightUpLeg_dum RightUpLeg
      Spine Spine_dum1 Spine_dum2 Spine_dum3
      Spine_dum1 Head
      Spine_dum2 LeftShoulder
      Spine_dum3 RightShoulder
      LeftShoulder LeftArm
      LeftArm LeftForeArm
      LeftForeArm LeftHand
      LeftHand LeftHand_dum1 LeftHand_dum2
      LeftHand_dum1 LeftHandThumb1
      RightShoulder RightArm
      RightArm RightForeArm
      RightForeArm RightHand
      RightHand RightHand_dum1 RightHand_dum2
      RightHand_dum1 RightHandThumb1
      LeftUpLeg LeftLeg
      LeftLeg LeftFoot
      LeftFoot LeftToeBase
      RightUpLeg RightLeg
      RightLeg RightFoot
      RightFoot RightToeBase
   end

# File created by Blade
# Date/Time:  Tue Jan 27 19:23:16 2015
# Frame Rate: 120.000 fps
#------------------------------------------------------
:FULLY-SPECIFIED
:DEGREES
1095
root 5.065963 32.345577 0.054299 -3.210880 18.280012 2.119448
Spine -0.277464 24.891858 -0.748485
Head 2.653153 -33.802805 0.620221
LeftShoulder -2.181712 -8.517268 22.521385
LeftArm -5.383474 42.533921 -103.196950
LeftForeArm 2.755621 -0.000000 12.586465
LeftHand 10.165602 -0.000000 -7.395745
LeftHandThumb1 -26.253704 0.000000 33.147579
RightShoulder -0.251435 22.578807 -44.792480
RightArm 58.794042 20.478910 120.093614
RightForeArm 35.459171 -0.000000 94.868408
RightHand 28.490526 -0.000000 -10.922677
RightHandThumb1 -24.326973 -0.000000 -32.862282
LeftUpLeg 7.279237 -10.988869 -4.006182
LeftLeg 2.945076 -0.000000 -0.000000
LeftFoot -14.555540 9.704455 -21.400772
LeftToeBase 17.493113 -0.000000 -0.000000
RightUpLeg 12.348832 -19.421740 -3.289606
RightLeg -0.789577 -0.000000 0.000000
RightFoot -15.298403 -18.407280 18.208852
RightToeBase 9.681451 -0.000000 -0.000000
1096
root 5.063645 32.346696 0.057400 -3.253267 18.014308 2.094719
Spine -0.258200 24.733009 -0.734920
Head 2.599615 -33.698371 0.600444
LeftShoulder -2.194330 -8.478092 22.549617
LeftArm -5.420470 42.464873 -103.191064
LeftForeArm 2.723302 -0.000000 12.448985
LeftHand 10.186547 -0.000000 -7.505083
LeftHandThumb1 -26.253704 0.000000 33.147579
RightShoulder -0.314474 22.096725 -44.789646
RightArm 59.244502 20.504696 119.688034
RightForeArm 35.681341 0.000000 94.804455
RightHand 28.587889 -0.000000 -10.903746
RightHandThumb1 -24.326973 -0.000000 -32.862282
LeftUpLeg 7.344906 -10.796761 -3.986866
LeftLeg 2.946099 -0.000000 -0.000000
LeftFoot -14.605525 9.771365 -21.390258
LeftToeBase 17.563462 -0.000000 -0.000000
RightUpLeg 12.301743 -19.301485 -3.268766
RightLeg -0.719536 -0.000000 0.000000
RightFoot -15.252816 -18.302164 18.129374
RightToeBase 9.694858 -0.000000 -0.000000
1097
root 5.060357 32.346974 0.059687 -3.278399 17.772690 2.076868
Spine -0.249084 24.538646 -0.724328
Head 2.531950 -33.607026 0.559375
LeftShoulder -2.181473 -8.410848 22.556015
LeftArm -5.418779 42.389248 -103.147402
LeftForeArm 2.797148 -0.000000 12.288083
LeftHand 10.201287 0.000000 -7.622356
LeftHandThumb1 -26.253704 0.000000 33.147579
RightShoulder -0.383838 21.700413 -44.827980
RightArm 59.621652 20.580530 119.361627
RightForeArm 35.767892 -0.000000 94.757356
RightHand 28.565437 -0.000000 -10.937577
RightHandThumb1 -24.326973 -0.000000 -32.862282
LeftUpLeg 7.400018 -10.625988 -3.971513
LeftLeg 2.934908 -0.000000 -0.000000
LeftFoot -14.619367 9.831305 -21.321306
LeftToeBase 17.323542 -0.000000 -0.000000
RightUpLeg 12.240554 -19.220470 -3.253172
RightLeg -0.642953 -0.000000 0.000000
RightFoot -15.219129 -18.181647 18.043500
RightToeBase 9.682460 -0.000000 -0.000000
1098
root 5.056982 32.347265 0.061998 -3.307960 17.518029 2.052409
Spine -0.237744 24.320537 -0.699097
Head 2.470144 -33.496565 0.514402
LeftShoulder -2.192997 -8.360462 22.557653
LeftArm -5.468686 42.352391 -103.131989
LeftForeArm 2.784434 -0.000000 12.170211
LeftHand 10.121920 -0.000000 -7.621766
LeftHandThumb1 -26.253704 0.000000 33.147579
RightShoulder -0.474108 21.750097 -44.857445
RightArm 59.561623 20.839090 118.912184
RightForeArm 35.980707 -0.000000 94.701807
RightHand 28.620786 -0.000000 -10.678015
RightHandThumb1 -24.326973 -0.000000 -32.862282
LeftUpLeg 7.456647 -10.420227 -3.943088
LeftLeg 2.910545 -0.000000 -0.000000
LeftFoot -14.705270 9.865551 -21.446782
LeftToeBase 17.518300 -0.000000 -0.000000
RightUpLeg 12.178670 -19.120740 -3.226812
RightLeg -0.566181 -0.000000 0.000000
RightFoot -15.168674 -18.067055 17.954998
RightToeBase 9.640380 -0.000000 -0.000000
1099
root 5.053033 32.347680 0.066485 -3.365626 17.213000 2.023751
Spine -0.185122 24.136149 -0.648236
Head 2.385011 -33.384383 0.470241
LeftShoulder -2.194231 -8.316769 22.552547
LeftArm -5.563302 42.308213 -103.137603
LeftForeArm 2.761755 0.000000 12.103136
LeftHand 9.959102 -0.000000 -7.651668
LeftHandThumb1 -26.253704 0.000000 33.147579
RightShoulder -0.590319 21.524405 -44.885773
RightArm 59.760324 20.941043 118.565658
RightForeArm 35.964737 -0.000000 94.630232
RightHand 28.546181 -0.000000 -10.586631
RightHandThumb1 -24.326973 -0.000000 -32.862282
LeftUpLeg 7.560636 -10.140574 -3.908516
LeftLeg 2.868984 -0.000000 -0.000000
LeftFoot -14.754008 9.893513 -21.463495
LeftToeBase 17.515216 -0.000000 -0.000000
RightUpLeg 12.131335 -18.969901 -3.194675
RightLeg -0.482471 -0.000000 0.000000
RightFoot -15.117837 -17.989101 17.836762
RightToeBase 9.563491 -0.000000 -0.000000
1100
root 5.048725 32.347583 0.069775 -3.390566 16.914517 2.000305
Spine -0.180672 23.977340 -0.631279
Head 2.309404 -33.314699 0.461008
LeftShoulder -2.173386 -8.271396 22.581523
LeftArm -5.603960 42.231147 -103.153140
LeftForeArm 2.734120 0.000000 11.945473
LeftHand 10.004592 -0.000000 -7.665223
LeftHandThumb1 -26.253704 0.000000 33.147579
RightShoulder -0.747521 21.472681 -44.902278
RightArm 59.733280 21.131650 118.155697
RightForeArm 36.000409 -0.000000 94.571003
RightHand 28.571497 0.000000 -10.490730
RightHandThumb1 -24.326973 -0.000000 -32.862282
LeftUpLeg 7.625626 -9.902941 -3.881058
LeftLeg 2.850414 -0.000000 -0.000000
LeftFoot -14.823561 9.926552 -21.548190
LeftToeBase 17.570751 -0.000000 -0.000000
RightUpLeg 12.058560 -18.877487 -3.171334
RightLeg -0.405148 -0.000000 0.000000
RightFoot -15.071834 -17.840928 17.734009
RightToeBase 9.578489 -0.000000 -0.000000
1101
root 5.044507 32.346790 0.073123 -3.411163 16.603491 1.970218
Spine -0.194941 23.761523 -0.613060
Head 2.263611 -33.191693 0.436054
LeftShoulder -2.179877 -8.213720 22.620778
LeftArm -5.669138 42.136043 -103.192767
LeftForeArm 2.825335 0.000000 11.804931
LeftHand 10.000857 -0.000000 -7.527369
LeftHandThumb1 -26.253704 0.000000 33.147579
RightShoulder -0.806145 21.267875 -44.885081
RightArm 59.867271 21.274994 117.781932
RightForeArm 36.174505 -0.000000 94.569903
RightHand 28.696451 0.000000 -10.471914
RightHandThumb1 -24.326973 -0.000000 -32.862282
LeftUpLeg 7.685739 -9.659517 -3.845844
LeftLeg 2.832111 -0.000000 -0.000000
LeftFoot -14.836117 9.983279 -21.429058
LeftToeBase 17.319105 -0.000000 -0.000000
RightUpLeg 11.973038 -18.692057 -3.123363
RightLeg -0.325792 -0.000000 0.000000
RightFoot -15.051462 -17.750365 17.659649
RightToeBase 9.598487 -0.000000 -0.000000
